<?xml version="1.0" encoding="UTF-8" standalone="no"?>
<!DOCTYPE svg PUBLIC "-//W3C//DTD SVG 1.1//EN" "http://www.w3.org/Graphics/SVG/1.1/DTD/svg11.dtd">
<svg width="100%" height="100%" viewBox="0 0 558 240" version="1.1" xmlns="http://www.w3.org/2000/svg" xmlns:xlink="http://www.w3.org/1999/xlink" xml:space="preserve" xmlns:serif="http://www.serif.com/" style="fill-rule:evenodd;clip-rule:evenodd;stroke-linejoin:round;stroke-miterlimit:2;">
    <g transform="matrix(1,0,0,1,-121.391,-30.4092)">
        <g>
            <g transform="matrix(1,0,0,1,93.0242,-1.11125)">
                <g transform="matrix(0.88047,0,0,0.88047,-75.5532,-9.91437)">
                    <path d="M118.028,180.189L118.028,170.595L130.44,168.462L130.44,81.121L118.028,78.989L118.028,69.318L157.853,69.318L157.853,78.989L145.441,81.121L145.441,168.691L184.657,168.691L186.408,151.177L197.907,151.177L197.907,180.189L118.028,180.189Z" style="fill:white;fill-rule:nonzero;"/>
                    <path d="M248.393,181.788C240.778,181.788 234.217,179.999 228.709,176.42C223.2,172.841 218.949,167.891 215.954,161.571C212.959,155.251 211.461,148.029 211.461,139.907L211.461,138.232C211.461,130.109 212.959,122.888 215.954,116.568C218.949,110.247 223.2,105.285 228.709,101.681C234.217,98.077 240.727,96.274 248.24,96.274C255.855,96.274 262.417,98.077 267.925,101.681C273.433,105.285 277.684,110.235 280.679,116.53C283.675,122.825 285.172,130.059 285.172,138.232L285.172,139.907C285.172,148.08 283.675,155.327 280.679,161.647C277.684,167.967 273.445,172.904 267.963,176.458C262.48,180.012 255.957,181.788 248.393,181.788ZM248.393,170.062C253.165,170.062 257.162,168.754 260.386,166.14C263.61,163.526 266.046,159.947 267.696,155.403C269.346,150.86 270.171,145.694 270.171,139.907L270.171,138.232C270.171,132.445 269.346,127.279 267.696,122.736C266.046,118.192 263.597,114.613 260.348,111.999C257.099,109.384 253.063,108.077 248.24,108.077C243.468,108.077 239.458,109.384 236.209,111.999C232.96,114.613 230.523,118.192 228.899,122.736C227.274,127.279 226.462,132.445 226.462,138.232L226.462,139.907C226.462,145.694 227.274,150.86 228.899,155.403C230.523,159.947 232.973,163.526 236.247,166.14C239.521,168.754 243.57,170.062 248.393,170.062Z" style="fill:white;fill-rule:nonzero;"/>
                    <path d="M336.648,181.788C329.186,181.788 322.688,180.05 317.154,176.572C311.621,173.095 307.331,168.259 304.285,162.066C301.239,155.873 299.716,148.715 299.716,140.592L299.716,137.394C299.716,129.576 301.189,122.571 304.133,116.377C307.077,110.184 311.316,105.285 316.85,101.681C322.383,98.077 328.982,96.274 336.648,96.274C343.298,96.274 349.124,97.366 354.124,99.549C359.124,101.732 363.325,104.727 366.726,108.534L367.107,128.333L355.38,128.333L352.791,113.941C351.065,112.164 348.908,110.742 346.319,109.676C343.73,108.61 340.684,108.077 337.181,108.077C332.714,108.077 328.792,109.397 325.416,112.037C322.04,114.677 319.413,118.205 317.535,122.621C315.657,127.038 314.717,131.962 314.717,137.394L314.717,140.592C314.717,146.583 315.593,151.786 317.345,156.203C319.096,160.619 321.609,164.033 324.883,166.445C328.158,168.856 332.054,170.062 336.572,170.062C341.648,170.062 345.862,168.666 349.212,165.873C352.563,163.081 354.619,159.249 355.38,154.375L368.859,154.375L369.011,154.832C368.757,159.553 367.361,163.97 364.823,168.082C362.284,172.194 358.667,175.506 353.972,178.019C349.276,180.532 343.501,181.788 336.648,181.788Z" style="fill:white;fill-rule:nonzero;"/>
                    <path d="M408.836,181.788C400.257,181.788 393.733,179.694 389.266,175.506C384.799,171.318 382.565,165.417 382.565,157.802C382.565,152.573 383.999,148.017 386.867,144.133C389.736,140.25 393.886,137.229 399.318,135.072C404.75,132.914 411.247,131.835 418.811,131.835L433.508,131.835L433.508,123.764C433.508,118.789 431.998,114.931 428.977,112.189C425.957,109.448 421.705,108.077 416.222,108.077C412.77,108.077 409.775,108.496 407.237,109.334C404.699,110.171 402.389,111.326 400.308,112.798L398.708,124.297L387.134,124.297L387.134,105.412C390.84,102.417 395.155,100.145 400.079,98.597C405.003,97.049 410.461,96.274 416.451,96.274C426.452,96.274 434.295,98.66 439.981,103.432C445.666,108.204 448.509,115.032 448.509,123.916L448.509,163.589C448.509,164.655 448.522,165.696 448.547,166.711C448.573,167.726 448.636,168.742 448.738,169.757L456.733,170.595L456.733,180.189L435.183,180.189C434.726,177.956 434.371,175.95 434.117,174.174C433.863,172.397 433.686,170.62 433.584,168.843C430.691,172.549 427.073,175.633 422.733,178.095C418.393,180.557 413.76,181.788 408.836,181.788ZM411.044,169.224C416.019,169.224 420.563,168.031 424.675,165.645C428.787,163.259 431.731,160.391 433.508,157.04L433.508,142.115L418.278,142.115C411.374,142.115 406.196,143.765 402.744,147.065C399.292,150.365 397.566,154.045 397.566,158.106C397.566,161.711 398.683,164.465 400.917,166.368C403.15,168.272 406.526,169.224 411.044,169.224Z" style="fill:white;fill-rule:nonzero;"/>
                    <path d="M497.472,181.484C491.38,181.484 486.545,179.694 482.966,176.115C479.387,172.536 477.598,166.813 477.598,158.944L477.598,108.915L464.576,108.915L464.576,97.797L477.598,97.797L477.598,77.923L492.599,77.923L492.599,97.797L510.493,97.797L510.493,108.915L492.599,108.915L492.599,158.944C492.599,162.904 493.386,165.823 494.959,167.701C496.533,169.579 498.64,170.518 501.28,170.518C503.056,170.518 505.036,170.353 507.219,170.023C509.402,169.694 511.103,169.402 512.321,169.148L514.377,178.971C512.194,179.631 509.516,180.215 506.343,180.722C503.171,181.23 500.213,181.484 497.472,181.484Z" style="fill:white;fill-rule:nonzero;"/>
                    <path d="M523.439,180.189L523.439,170.595L535.851,168.462L535.851,109.6L523.439,107.468L523.439,97.797L550.852,97.797L550.852,168.462L563.264,170.595L563.264,180.189L523.439,180.189ZM535.089,77.466L535.089,61.399L550.852,61.399L550.852,77.466L535.089,77.466Z" style="fill:white;fill-rule:nonzero;"/>
                    <path d="M610.856,181.788C603.241,181.788 596.68,179.999 591.172,176.42C585.664,172.841 581.412,167.891 578.417,161.571C575.422,155.251 573.925,148.029 573.925,139.907L573.925,138.232C573.925,130.109 575.422,122.888 578.417,116.568C581.412,110.247 585.664,105.285 591.172,101.681C596.68,98.077 603.191,96.274 610.704,96.274C618.319,96.274 624.88,98.077 630.388,101.681C635.896,105.285 640.148,110.235 643.143,116.53C646.138,122.825 647.636,130.059 647.636,138.232L647.636,139.907C647.636,148.08 646.138,155.327 643.143,161.647C640.148,167.967 635.909,172.904 630.426,176.458C624.944,180.012 618.42,181.788 610.856,181.788ZM610.856,170.062C615.628,170.062 619.626,168.754 622.849,166.14C626.073,163.526 628.51,159.947 630.16,155.403C631.81,150.86 632.634,145.694 632.634,139.907L632.634,138.232C632.634,132.445 631.81,127.279 630.16,122.736C628.51,118.192 626.06,114.613 622.811,111.999C619.562,109.384 615.527,108.077 610.704,108.077C605.932,108.077 601.922,109.384 598.673,111.999C595.424,114.613 592.987,118.192 591.362,122.736C589.738,127.279 588.926,132.445 588.926,138.232L588.926,139.907C588.926,145.694 589.738,150.86 591.362,155.403C592.987,159.947 595.436,163.526 598.711,166.14C601.985,168.754 606.033,170.062 610.856,170.062Z" style="fill:white;fill-rule:nonzero;"/>
                    <path d="M659.21,180.189L659.21,170.595L671.622,168.462L671.622,109.6L659.21,107.468L659.21,97.797L685.024,97.797L686.09,110.057C688.832,105.691 692.271,102.303 696.408,99.891C700.546,97.48 705.254,96.274 710.534,96.274C719.418,96.274 726.296,98.876 731.17,104.08C736.043,109.283 738.48,117.317 738.48,128.18L738.48,168.462L750.892,170.595L750.892,180.189L711.067,180.189L711.067,170.595L723.479,168.462L723.479,128.485C723.479,121.225 722.045,116.073 719.176,113.027C716.308,109.981 711.93,108.458 706.041,108.458C701.726,108.458 697.906,109.499 694.581,111.58C691.256,113.661 688.603,116.504 686.623,120.109L686.623,168.462L699.035,170.595L699.035,180.189L659.21,180.189Z" style="fill:white;fill-rule:nonzero;"/>
                </g>
                <g transform="matrix(0.88047,0,0,0.88047,63.2988,110.307)">
                    <path d="M118.028,180.189L118.028,170.595L130.44,168.462L130.44,81.121L118.028,78.989L118.028,69.318L201.41,69.318L201.41,95.97L189.378,95.97L187.703,80.969L145.441,80.969L145.441,119.347L186.028,119.347L186.028,131.15L145.441,131.15L145.441,168.462L157.853,170.595L157.853,180.189L118.028,180.189Z" style="fill:white;fill-rule:nonzero;"/>
                    <path d="M212.603,180.189L212.603,170.595L225.015,168.462L225.015,109.6L212.603,107.468L212.603,97.797L240.016,97.797L240.016,168.462L252.429,170.595L252.429,180.189L212.603,180.189ZM224.254,77.466L224.254,61.399L240.016,61.399L240.016,77.466L224.254,77.466Z" style="fill:white;fill-rule:nonzero;"/>
                    <path d="M262.785,180.189L262.785,170.595L275.197,168.462L275.197,109.6L262.785,107.468L262.785,97.797L288.599,97.797L289.665,110.057C292.406,105.691 295.845,102.303 299.983,99.891C304.12,97.48 308.829,96.274 314.108,96.274C322.992,96.274 329.871,98.876 334.744,104.08C339.618,109.283 342.054,117.317 342.054,128.18L342.054,168.462L354.467,170.595L354.467,180.189L314.641,180.189L314.641,170.595L327.053,168.462L327.053,128.485C327.053,121.225 325.619,116.073 322.751,113.027C319.883,109.981 315.504,108.458 309.616,108.458C305.3,108.458 301.48,109.499 298.155,111.58C294.83,113.661 292.178,116.504 290.198,120.109L290.198,168.462L302.61,170.595L302.61,180.189L262.785,180.189Z" style="fill:white;fill-rule:nonzero;"/>
                    <path d="M396.652,181.788C389.951,181.788 384.202,180.126 379.405,176.801C374.608,173.476 370.94,168.843 368.402,162.904C365.863,156.964 364.594,150.035 364.594,142.115L364.594,140.516C364.594,131.683 365.863,123.941 368.402,117.291C370.94,110.641 374.62,105.476 379.443,101.795C384.266,98.115 390.053,96.274 396.805,96.274C401.678,96.274 405.981,97.175 409.712,98.978C413.443,100.78 416.629,103.381 419.268,106.783L419.268,73.202L406.856,71.069L406.856,61.399L434.269,61.399L434.269,168.462L446.682,170.595L446.682,180.189L421.248,180.189L420.03,170.366C417.339,174.123 414.052,176.966 410.169,178.895C406.285,180.824 401.78,181.788 396.652,181.788ZM400.46,169.605C404.927,169.605 408.684,168.589 411.73,166.559C414.776,164.528 417.289,161.66 419.268,157.954L419.268,119.728C417.339,116.276 414.826,113.535 411.73,111.504C408.633,109.473 404.927,108.458 400.612,108.458C395.84,108.458 391.906,109.816 388.809,112.532C385.713,115.248 383.403,119.004 381.88,123.802C380.357,128.599 379.595,134.171 379.595,140.516L379.595,142.115C379.595,150.39 381.296,157.04 384.697,162.066C388.099,167.092 393.353,169.605 400.46,169.605Z" style="fill:white;fill-rule:nonzero;"/>
                    <path d="M494.198,181.788C486.583,181.788 479.958,180.05 474.323,176.572C468.688,173.095 464.335,168.259 461.264,162.066C458.193,155.873 456.657,148.715 456.657,140.592L456.657,137.242C456.657,129.424 458.269,122.431 461.492,116.263C464.716,110.095 469.006,105.222 474.361,101.643C479.717,98.064 485.568,96.274 491.913,96.274C499.325,96.274 505.531,97.797 510.531,100.843C515.532,103.889 519.301,108.166 521.839,113.674C524.378,119.182 525.647,125.667 525.647,133.13L525.647,142.496L472.191,142.496L471.963,142.877C472.064,148.156 472.991,152.839 474.742,156.926C476.493,161.013 479.019,164.224 482.319,166.559C485.618,168.894 489.578,170.062 494.198,170.062C499.274,170.062 503.729,169.338 507.562,167.891C511.394,166.445 514.707,164.452 517.499,161.914L523.362,171.661C520.418,174.504 516.522,176.902 511.674,178.857C506.826,180.811 501,181.788 494.198,181.788ZM472.648,130.769L510.646,130.769L510.646,128.789C510.646,124.83 509.948,121.289 508.552,118.167C507.156,115.045 505.074,112.583 502.308,110.781C499.541,108.978 496.076,108.077 491.913,108.077C488.563,108.077 485.517,109.054 482.776,111.009C480.034,112.963 477.775,115.616 475.998,118.966C474.222,122.317 473.054,126.124 472.496,130.389L472.648,130.769Z" style="fill:white;fill-rule:nonzero;"/>
                    <path d="M537.145,180.189L537.145,170.595L549.557,168.462L549.557,109.6L537.145,107.468L537.145,97.797L562.959,97.797L564.254,108.306L564.406,109.753C566.741,105.539 569.622,102.239 573.049,99.853C576.475,97.467 580.397,96.274 584.814,96.274C586.387,96.274 587.999,96.414 589.649,96.693C591.299,96.972 592.479,97.239 593.19,97.493L591.21,111.428L580.778,110.819C576.818,110.565 573.493,111.466 570.802,113.522C568.112,115.578 566.031,118.332 564.558,121.784L564.558,168.462L576.97,170.595L576.97,180.189L537.145,180.189Z" style="fill:white;fill-rule:nonzero;"/>
                </g>
            </g>
            <g>
                <g transform="matrix(1,0,0,1,-6.74361,-0.345185)">
                    <path d="M312.549,68.155C297.917,45.453 272.509,31.142 242.158,30.754L241.999,30.754C193.864,31.369 158.16,67.004 158.16,115.59C158.16,120.257 158.874,125.411 160.175,130.917L172.977,130.917C171.495,125.391 170.66,120.23 170.66,115.59C170.66,74.176 201.088,43.802 242.104,43.254C267.15,43.582 288.263,55.071 300.886,73.422C304.243,70.771 308.116,68.99 312.549,68.155Z" style="fill:rgb(211,211,211);"/>
                </g>
                <g transform="matrix(1,0,0,1,-6.74361,-0.345185)">
                    <path d="M323.16,134.559C324.979,127.733 325.996,121.335 325.996,115.59C325.996,106.711 324.804,98.265 322.561,90.386C317.829,90.663 314.129,92.04 311.257,96.379C312.937,102.721 313.496,108.509 313.496,115.59C313.496,120.277 312.698,125.433 311.277,130.917C314.695,133.905 318.614,135.429 323.16,134.559Z" style="fill:rgb(211,211,211);"/>
                </g>
                <g transform="matrix(1,0,0,1,-6.74361,-0.345185)">
                    <path d="M272.437,207.417C260.246,225.89 248.483,241.547 242.113,249.786L242.113,249.786C231.216,235.501 204.389,199.085 186.753,164.538C185.264,161.62 183.837,158.718 182.492,155.847L168.805,155.847C170.858,160.568 173.148,165.38 175.62,170.222C198.712,215.456 242.04,269.936 242.04,269.936C242.04,269.936 256.079,252.557 272.437,229.227" style="fill:rgb(211,211,211);"/>
                </g>
                <g transform="matrix(1,0,0,1,-6.74361,-0.345185)">
                    <path d="M311.062,165.849C313.444,161.034 314.636,158.251 316.582,153.561C312.392,153.774 308.313,152.65 304.313,150.591C302.246,155.381 299.914,160.276 297.402,165.206C296.953,166.086 297.498,164.967 297.038,165.849" style="fill:rgb(211,211,211);"/>
                </g>
            </g>
        </g>
    </g>
</svg>
